<svg width="128" height="128" viewBox="0 0 128 128" fill="none" xmlns="http://www.w3.org/2000/svg">
<path d="M89.2337 5.85603H81.8497L89.5287 14.189V18.156H73.7127V13.511H81.3907L73.7127 5.17803V1.20703H89.2337V5.85603ZM70.5767 5.85603H63.1927L70.8717 14.189V18.156H55.0547V13.511H62.7337L55.0547 5.17803V1.20703H70.5767V5.85603ZM52.1027 6.04603H44.1347V13.317H52.1027V18.156H38.4707V1.20703H52.1027V6.04603Z" fill="white"/>
<path d="M27.6126 116.706L19.5156 25.8926H108.483L100.379 116.691L63.9446 126.793L27.6126 116.706Z" fill="#1572B6"/>
<path d="M64.001 119.072L93.44 110.91L100.366 33.3193H64.001V119.072Z" fill="#33A9DC"/>
<path d="M64 66.2198H78.738L79.757 54.8148H64V43.6768H91.929L91.662 46.6648L88.925 77.3568H64V66.2198Z" fill="white"/>
<path d="M64.0666 95.1458L64.0176 95.1598L51.6136 91.8098L50.8196 82.9268H39.6406L41.2016 100.415L64.0156 106.748L64.0676 106.733L64.0666 95.1458Z" fill="#EBEBEB"/>
<path d="M77.7923 76.8857L76.4503 91.8017L64.0283 95.1547V106.743L86.8613 100.415L87.0293 98.5327L88.9673 76.8857H77.7923Z" fill="white"/>
<path d="M64.0387 43.6768V54.8138H37.1357L36.9117 52.3108L36.4047 46.6648L36.1377 43.6768H64.0387ZM63.9997 66.2208V77.3588H51.7527L51.5297 74.8558L51.0217 69.2088L50.7547 66.2208H63.9997Z" fill="#EBEBEB"/>
</svg>
