<svg width="400" height="400" viewBox="0 0 400 400" fill="none" xmlns="http://www.w3.org/2000/svg">
<g clip-path="url(#clip0_11_39)">
<path d="M400 200C400 310.457 310.457 400 200 400C89.5431 400 0 310.457 0 200C0 89.5431 89.5431 0 200 0C310.457 0 400 89.5431 400 200Z" fill="white"/>
<path d="M143.141 233V168.295H146.668V178.474C147.085 178.023 147.47 177.544 147.82 177.04C149.261 174.061 151.526 171.552 154.347 169.809C157.169 168.065 160.432 167.159 163.753 167.196C171.791 166.957 178.318 169.92 182.157 177.04C184.6 181.463 185.944 186.405 186.078 191.451C186.211 196.497 185.13 201.502 182.925 206.047C179.349 214.028 170.519 217.995 161.065 216.537C158.123 216.287 155.291 215.308 152.826 213.689C150.362 212.07 148.344 209.861 146.956 207.266V233H143.141ZM146.668 191.185C146.98 194.339 147.1 196.585 147.46 198.784C148.852 207.433 153.987 212.571 162.049 213.502C165.835 214.122 169.719 213.415 173.04 211.503C176.361 209.59 178.913 206.589 180.261 203.013C181.811 199.334 182.556 195.369 182.449 191.381C182.341 187.393 181.383 183.474 179.637 179.883C178.198 176.678 175.751 174.025 172.664 172.327C169.578 170.629 166.02 169.977 162.529 170.469C159.251 170.706 156.128 171.953 153.595 174.039C151.062 176.124 149.245 178.944 148.396 182.106C147.644 185.096 147.067 188.128 146.668 191.185ZM258.029 199.978C257.495 204.534 255.317 208.741 251.901 211.818C248.484 214.895 244.062 216.631 239.457 216.704C224.676 217.445 217.741 207.672 216.638 196.394C215.872 190.27 216.87 184.054 219.517 178.474C221.36 174.646 224.379 171.501 228.136 169.495C231.894 167.489 236.195 166.725 240.417 167.315C244.431 167.654 248.236 169.241 251.293 171.853C254.351 174.465 256.506 177.968 257.453 181.867C258.204 185.418 258.757 189.007 259.109 192.619H220.261C219.541 202.846 225.06 211.065 232.882 213.048C242.624 215.438 250.951 211.232 253.974 202.009C254.646 199.644 255.87 199.309 258.029 199.978ZM220.261 189.345H254.982C254.766 178.45 247.951 170.565 238.713 170.445C228.251 170.278 220.717 177.876 220.261 189.345ZM265.18 200.217H268.587C268.713 202.714 269.527 205.128 270.941 207.193C272.355 209.259 274.314 210.896 276.601 211.925C279.474 213.213 282.601 213.838 285.75 213.756C288.899 213.673 291.989 212.884 294.789 211.448C296.316 210.762 297.594 209.628 298.452 208.196C299.31 206.765 299.707 205.106 299.588 203.443C299.676 201.839 299.236 200.251 298.336 198.918C297.435 197.586 296.123 196.582 294.597 196.06C290.854 194.674 286.871 193.909 283.056 192.691C279.086 191.565 275.205 190.151 271.442 188.461C265.3 185.475 264.916 173.838 271.874 170.159C275.437 168.156 279.447 167.074 283.538 167.012C287.629 166.949 291.67 167.908 295.293 169.8C297.488 171.008 299.261 172.853 300.376 175.09C301.49 177.327 301.894 179.85 301.532 182.321H298.605C298.605 182.177 298.341 182.058 298.341 181.914C297.981 172.62 290.158 169.752 281.76 170.565C279.253 170.873 276.818 171.608 274.562 172.739C273.206 173.356 272.076 174.378 271.328 175.662C270.581 176.946 270.251 178.429 270.386 179.907C270.391 181.386 270.854 182.828 271.713 184.034C272.572 185.24 273.785 186.152 275.185 186.645C278.881 187.983 282.744 188.844 286.535 189.895C289.583 190.731 292.75 191.281 295.701 192.284C297.784 192.964 299.611 194.258 300.939 195.995C302.268 197.732 303.035 199.829 303.14 202.009C303.496 204.398 303.087 206.839 301.971 208.983C300.856 211.128 299.09 212.868 296.925 213.956C288.911 218.472 275.713 217.278 269.835 211.567C268.345 210.075 267.166 208.304 266.367 206.356C265.568 204.408 265.165 202.321 265.18 200.217ZM346.331 182.321H343.139C343.139 181.891 342.971 181.508 342.923 181.15C342.872 178.768 342 176.476 340.453 174.657C338.907 172.839 336.78 171.605 334.429 171.162C329.993 169.895 325.261 170.121 320.968 171.807C319.271 172.292 317.777 173.31 316.709 174.709C315.641 176.109 315.056 177.815 315.041 179.573C314.982 181.299 315.522 182.993 316.571 184.369C317.62 185.744 319.114 186.717 320.8 187.123C325.599 188.605 330.518 189.513 335.389 190.851C336.967 191.228 338.522 191.699 340.044 192.261C342.317 193.07 344.292 194.544 345.71 196.489C347.129 198.434 347.925 200.76 347.995 203.163C348.065 205.566 347.405 207.934 346.102 209.957C344.8 211.981 342.914 213.566 340.692 214.506C337.306 216.037 333.636 216.847 329.917 216.884C326.198 216.921 322.513 216.184 319.096 214.721C316.287 213.514 313.916 211.48 312.303 208.891C310.69 206.302 309.912 203.284 310.074 200.241H313.194C313.771 203.014 315.018 205.604 316.827 207.788C318.636 209.973 320.952 211.685 323.576 212.777C326.199 213.869 329.05 214.308 331.882 214.055C334.714 213.803 337.441 212.867 339.828 211.328C341.282 210.576 342.489 209.424 343.305 208.01C344.122 206.595 344.514 204.977 344.435 203.347C344.507 201.743 344.052 200.158 343.139 198.835C342.225 197.511 340.903 196.52 339.372 196.012C335.629 194.626 331.646 193.885 327.831 192.667C323.838 191.558 319.933 190.161 316.145 188.485C310.146 185.546 309.666 174.005 316.505 170.326C320.112 168.24 324.2 167.119 328.372 167.073C332.543 167.027 336.655 168.057 340.308 170.063C342.397 171.305 344.079 173.125 345.148 175.301C346.217 177.477 346.628 179.916 346.331 182.321ZM137.31 215.533C136.054 216.007 134.667 216.006 133.411 215.531C132.155 215.055 131.118 214.138 130.496 212.953C126.584 207.123 122.265 201.555 118.114 195.869L116.314 193.479C111.371 200.074 106.429 206.406 101.917 212.977C101.33 214.11 100.349 214.991 99.1566 215.457C97.9648 215.923 96.6435 215.942 95.4388 215.51L113.987 190.731L96.7345 168.343C97.9764 167.896 99.335 167.89 100.581 168.325C101.827 168.761 102.884 169.611 103.573 170.732C107.58 176.562 112.019 182.129 116.434 188.031C120.874 182.177 125.265 176.586 129.368 170.804C129.959 169.689 130.94 168.83 132.126 168.389C133.312 167.949 134.619 167.958 135.798 168.414L129.104 177.255C126.104 181.198 123.153 185.164 120.034 189.011C119.782 189.235 119.581 189.509 119.444 189.816C119.306 190.123 119.235 190.455 119.235 190.791C119.235 191.127 119.306 191.459 119.444 191.766C119.581 192.073 119.782 192.347 120.034 192.571C125.768 200.146 131.455 207.744 137.31 215.533ZM216.062 168.104V171.449C213.635 171.29 211.202 171.64 208.919 172.476C206.636 173.312 204.555 174.615 202.809 176.302C201.064 177.988 199.693 180.02 198.785 182.267C197.877 184.514 197.452 186.925 197.538 189.345V215.629H194.106V168.295H197.466V177.996C201.617 170.923 208.023 168.295 216.062 168.104ZM51 190.421C51.5039 188.031 51.8158 185.427 52.5117 182.99C56.6628 168.295 73.5793 162.178 85.2169 171.282C92.0315 176.61 93.7351 184.16 93.3992 192.667H55.0072C54.3833 207.863 65.397 217.039 79.4821 212.355C81.7669 211.542 83.8122 210.174 85.4334 208.376C87.0546 206.578 88.2007 204.407 88.7682 202.057C89.512 199.668 90.7118 199.262 92.9913 199.954C92.6158 202.863 91.583 205.65 89.9704 208.104C88.3579 210.558 86.2076 212.616 83.6812 214.124C79.507 216.397 74.718 217.297 69.9989 216.696C65.2798 216.096 60.8723 214.024 57.4067 210.778C53.9782 206.94 51.9051 202.089 51.5039 196.968C51.5039 196.155 51.192 195.343 51.024 194.578C51.008 193.161 51 191.775 51 190.421ZM55.0552 189.393H89.776C89.56 178.378 82.5774 170.565 73.2674 170.493C62.9015 170.35 55.4871 177.996 55.0312 189.345L55.0552 189.393Z" fill="black"/>
</g>
<defs>
<clipPath id="clip0_11_39">
<rect width="400" height="400" fill="white"/>
</clipPath>
</defs>
</svg>
