<svg width="400" height="400" viewBox="0 0 400 400" fill="none" xmlns="http://www.w3.org/2000/svg">
<g clip-path="url(#clip0_11_19)">
<path d="M400 200C400 310.457 310.457 400 200 400C89.5431 400 0 310.457 0 200C0 89.5431 89.5431 0 200 0C310.457 0 400 89.5431 400 200Z" fill="white"/>
<path d="M133.32 152.781H192.629V157.605H138.734V194.168H189.43V198.992H138.734V239.109H193.367V243.934H133.32V152.781ZM198.043 152.781H204.441L232.496 192.898L260.797 152.781L299.68 102L235.695 197.215L268.672 243.934H262.027L232.25 201.277L202.227 243.934H195.828L229.051 197.215L198.043 152.781ZM271.133 157.605V152.781H338.809V157.605H307.555V243.934H302.141V157.605H271.133ZM59 152.781H65.6445L159.652 297L120.77 243.934L64.6602 159.637L64.4141 243.934H59V152.781ZM338.316 237.586C339.547 237.586 340.285 236.824 340.285 235.555C340.285 234.285 339.547 233.523 338.316 233.523C337.086 233.523 336.348 234.285 336.348 235.555C336.348 236.824 337.332 237.586 338.316 237.586ZM343.73 232.254C343.73 235.555 346.191 237.84 349.637 237.84C353.328 237.84 355.543 235.555 355.543 231.492V217.527H352.59V231.492C352.59 233.777 351.605 234.793 349.637 234.793C347.914 234.793 346.684 233.777 346.684 232H343.73V232.254ZM359.234 232C359.48 235.555 362.188 237.84 366.617 237.84C371.047 237.84 374 235.555 374 231.746C374 228.699 372.277 227.176 368.586 226.16L366.371 225.652C363.91 225.145 362.926 224.129 362.926 222.859C362.926 221.082 364.402 219.813 366.863 219.813C369.078 219.813 370.555 220.828 370.801 222.859H373.754C373.508 219.559 370.801 217.273 366.863 217.273C362.68 217.273 359.973 219.559 359.973 223.113C359.973 225.906 361.449 227.684 364.895 228.445L367.355 228.953C369.816 229.461 371.047 230.477 371.047 232C371.047 233.777 369.324 235.047 366.863 235.047C364.402 235.047 362.434 233.777 362.187 232H359.234Z" fill="black"/>
</g>
<defs>
<clipPath id="clip0_11_19">
<rect width="400" height="400" fill="white"/>
</clipPath>
</defs>
</svg>
