<svg width="128" height="128" viewBox="0 0 128 128" fill="none" xmlns="http://www.w3.org/2000/svg">
<path d="M85.9877 76.0753C86.6197 70.8133 86.4307 70.0413 90.3497 70.8933L91.3447 70.9813C94.3587 71.1183 98.3017 70.4963 100.617 69.4203C105.603 67.1073 108.559 63.2433 103.643 64.2583C92.4277 66.5713 91.6567 62.7753 91.6567 62.7753C103.5 45.2043 108.451 22.9003 104.178 17.4403C92.5237 2.54826 72.3497 9.59026 72.0117 9.77326L71.9037 9.79426C69.6877 9.33326 67.2087 9.05926 64.4227 9.01426C59.3477 8.93126 55.4967 10.3453 52.5757 12.5603C52.5757 12.5603 16.5867 -2.26674 18.2607 31.2063C18.6167 38.3273 28.4677 85.0883 40.2167 70.9643C44.5107 65.8003 48.6607 61.4333 48.6607 61.4333C50.7217 62.8023 53.1887 63.5003 55.7767 63.2493L55.9767 63.0793C55.9147 63.7203 55.9417 64.3473 56.0577 65.0893C53.0307 68.4723 53.9207 69.0663 47.8687 70.3113C41.7467 71.5733 45.3437 73.8193 47.6907 74.4063C50.5387 75.1193 57.1237 76.1283 61.5747 69.8973L61.3977 70.6083C62.5857 71.5583 62.5047 77.4353 62.6727 81.6343C62.8407 85.8333 63.1227 89.7513 63.9787 92.0633C64.8347 94.3733 65.8447 100.324 73.7977 98.6203C80.4437 97.1943 85.5247 95.1443 85.9877 76.0753Z" fill="black"/>
<path d="M71.2081 102.77C67.6901 102.77 65.4001 101.41 64.0081 100.096C61.9081 98.1146 61.0751 95.5616 60.5781 94.0366L60.3631 93.3996C59.3611 90.6946 59.0221 86.8006 58.8211 81.7866C58.7914 81.0028 58.7664 80.2188 58.7461 79.4346C58.7291 78.8336 58.7081 78.0796 58.6781 77.2886C57.4107 77.8931 56.0655 78.3185 54.6811 78.5526C52.2011 78.9766 49.5351 78.8386 46.7551 78.1436C44.7941 77.6536 42.7561 76.6376 41.5951 75.0676C38.2101 78.0326 34.9811 77.6296 33.2221 77.0436C30.1191 76.0086 27.3421 73.1016 24.7311 68.1536C22.8721 64.6306 21.0731 60.0386 19.3841 54.5076C16.4441 44.8746 14.5761 34.7286 14.4101 31.3986C13.8881 20.9716 16.6941 13.5156 22.7501 9.23862C32.3051 2.48962 46.7801 6.45762 52.0571 8.25962C55.6021 6.12262 59.7731 5.08162 64.4871 5.15762C67.0191 5.19862 69.4291 5.42162 71.6681 5.81962C74.0031 5.08562 78.6171 4.03162 83.8981 4.09662C93.6281 4.21262 101.691 8.00462 107.214 15.0626C111.155 20.0986 109.207 30.6726 107.694 36.5286C105.567 44.7636 101.838 53.5246 97.2581 61.1506C98.5021 61.1596 100.303 61.0096 102.865 60.4816C107.919 59.4376 109.396 62.1476 109.797 63.3606C111.404 68.2276 104.419 71.9046 102.24 72.9156C99.4481 74.2126 94.8971 75.0016 91.1691 74.8306L91.0061 74.8196L90.0271 74.7336L89.9301 75.5496L89.8371 76.3486C89.5871 86.0126 88.2061 92.1326 85.3651 96.1776C82.3881 100.417 78.2491 101.606 74.6041 102.387C73.4888 102.634 72.3504 102.762 71.2081 102.77ZM63.8061 67.5956C66.0771 69.4126 66.2761 72.8316 66.4531 79.2216C66.4751 80.0186 66.4961 80.7736 66.5241 81.4786C66.6101 83.6126 66.8111 88.6106 67.5931 90.7226C67.7041 91.0206 67.8031 91.3246 67.9071 91.6446C68.7791 94.3166 69.2171 95.6556 72.9881 94.8476C76.1551 94.1696 77.7821 93.5606 79.0561 91.7466C80.9081 89.1086 81.9441 83.8056 82.1341 75.9796L85.9861 76.0736L82.1601 75.6146L82.2721 74.6596C82.6391 71.5116 82.9031 69.2356 85.0081 67.7316C86.6961 66.5246 88.6211 66.6416 90.1541 66.9176C88.4701 65.6466 88.0041 64.1526 87.8801 63.5406L87.5591 61.9586L88.4611 60.6186C93.6611 52.9026 97.9501 43.4196 100.228 34.6006C102.568 25.5386 101.854 20.7256 101.141 19.8156C91.6951 7.74462 75.3121 12.7276 73.6021 13.2946L73.3121 13.4506L71.8621 13.7216L71.1191 13.5676C69.0721 13.1426 66.7981 12.9076 64.3591 12.8676C60.5281 12.8036 57.4381 13.7086 54.9041 15.6316L53.1461 16.9646L51.1051 16.1236C46.7471 14.3416 33.9431 10.7586 27.1871 15.5436C23.4371 18.1996 21.7291 23.4046 22.1091 31.0136C22.2341 33.5256 23.9421 43.0346 26.7561 52.2586C30.6471 65.0046 34.1831 69.2376 35.6591 69.7306C35.9161 69.8176 36.5851 69.2976 37.2501 68.4996C41.5761 63.2966 45.6901 58.9596 45.8631 58.7766L48.0941 56.4296L50.7911 58.2216C51.8781 58.9446 53.0771 59.3536 54.3091 59.4306L60.7421 53.9446L59.8101 63.4546C59.7891 63.6686 59.7791 63.9586 59.8631 64.4986L60.1431 66.3016L58.9301 67.6596L58.7901 67.8166L62.3241 69.4486L63.8061 67.5956Z" fill="black"/>
<path d="M103.646 64.2578C92.4298 66.5708 91.6588 62.7738 91.6588 62.7738C103.501 45.2028 108.451 22.8978 104.179 17.4388C92.5238 2.54677 72.3498 9.58977 72.0128 9.77277L71.9038 9.79177C69.6878 9.33277 67.2088 9.05877 64.4218 9.01377C59.3468 8.93077 55.4968 10.3438 52.5758 12.5588C52.5758 12.5588 16.5858 -2.26723 18.2598 31.2058C18.6158 38.3268 28.4668 85.0878 40.2158 70.9638C44.5098 65.7998 48.6588 61.4328 48.6588 61.4328C50.7198 62.8018 53.1868 63.4998 55.7738 63.2488L55.9748 63.0788C55.9128 63.7198 55.9408 64.3468 56.0548 65.0888C53.0288 68.4718 53.9168 69.0658 47.8668 70.3108C41.7438 71.5728 45.3408 73.8188 47.6898 74.4058C50.5368 75.1188 57.1228 76.1278 61.5728 69.8968L61.3948 70.6078C62.5808 71.5578 63.4138 76.7868 63.2738 81.5268C63.1338 86.2668 63.0408 89.5208 63.9758 92.0628C64.9108 94.6038 65.8418 100.324 73.7958 98.6198C80.4418 97.1948 83.8858 93.5038 84.3658 87.3478C84.7058 82.9708 85.4748 83.6178 85.5238 79.7038L86.1418 77.8508C86.8528 71.9168 86.2548 70.0028 90.3498 70.8938L91.3448 70.9808C94.3588 71.1188 98.3028 70.4958 100.618 69.4198C105.604 67.1058 108.561 63.2428 103.646 64.2578Z" fill="#336791"/>
<path d="M71.6099 100.394C64.9789 100.395 62.8789 95.1437 62.0189 92.9967C60.7619 89.8507 60.4899 77.6387 60.7699 67.6237C60.7885 67.2894 60.9369 66.9755 61.1834 66.7488C61.4299 66.5221 61.7551 66.4006 62.0899 66.4099C62.4246 66.4193 62.7425 66.5589 62.9759 66.799C63.2094 67.0392 63.3399 67.3609 63.3399 67.6957C63.0169 79.2467 63.4759 89.7137 64.4059 92.0417C65.8589 95.6737 68.0619 98.8507 74.2929 97.5167C80.2079 96.2477 82.4229 94.0048 83.4089 88.2868C84.1669 83.8978 85.6629 71.4127 85.8469 68.9487C85.8722 68.6089 86.0315 68.293 86.2897 68.0706C86.548 67.8481 86.884 67.7374 87.2239 67.7627C87.5637 67.7881 87.8796 67.9474 88.102 68.2056C88.3245 68.4639 88.4352 68.7999 88.4099 69.1397C88.2179 71.7037 86.7279 84.1657 85.9409 88.7237C84.7759 95.4787 81.7649 98.5427 74.8309 100.03C73.7729 100.264 72.6933 100.386 71.6099 100.394ZM35.6589 74.7487C35.0794 74.7481 34.5039 74.6532 33.9549 74.4678C29.6479 73.0308 25.5459 66.0167 21.7619 53.6187C18.8819 44.1807 17.0569 34.3307 16.8969 31.1297C16.4219 21.6397 18.8669 14.9247 24.1619 11.1727C34.6379 3.74975 52.2619 10.8187 53.0069 11.1227C53.3195 11.2536 53.5678 11.5026 53.6977 11.8157C53.8275 12.1287 53.8285 12.4804 53.7003 12.7941C53.5721 13.1079 53.3252 13.3583 53.0133 13.4908C52.7013 13.6233 52.3497 13.6273 52.0349 13.5017V13.5027C51.8649 13.4327 34.9649 6.66275 25.6429 13.2737C21.1149 16.4847 19.0359 22.4487 19.4629 31.0027C19.5979 33.6987 21.3029 43.3137 24.2199 52.8697C27.5979 63.9367 31.4429 70.9217 34.7679 72.0297C35.2889 72.2047 36.8769 72.7337 39.1489 70.0037C43.4209 64.8637 47.3459 60.7617 47.3849 60.7207C47.6238 60.4892 47.9433 60.3593 48.2761 60.3583C48.6089 60.3574 48.9291 60.4855 49.1694 60.7157C49.4097 60.9459 49.5514 61.2603 49.5647 61.5928C49.578 61.9253 49.462 62.25 49.2409 62.4987C49.2019 62.5387 45.3369 66.5798 41.1249 71.6468C39.1299 74.0448 37.2169 74.7487 35.6589 74.7487ZM91.5789 63.9197C91.3455 63.9201 91.1165 63.8568 90.9164 63.7368C90.7163 63.6167 90.5527 63.4444 90.4432 63.2383C90.3336 63.0322 90.2824 62.8002 90.2948 62.5672C90.3073 62.3342 90.383 62.109 90.5139 61.9157C102.485 44.1517 106.687 22.6887 103.088 18.0907C98.5579 12.3027 92.1609 9.27875 84.0759 9.10575C78.0889 8.97575 73.3299 10.5047 72.5529 10.7717L72.3579 10.8507C71.5759 11.0967 70.9759 10.6677 70.7499 10.1667C70.6211 9.8797 70.6016 9.55549 70.6952 9.25511C70.7888 8.95474 70.9889 8.6989 71.2579 8.53575L71.6039 8.39375L71.5869 8.39875L71.6049 8.39275C72.9259 7.90975 77.7569 6.45975 83.7419 6.52875C92.6889 6.62275 100.079 10.0737 105.113 16.5057C107.495 19.5497 107.5 26.5627 105.128 35.7457C102.71 45.1077 98.1599 55.1707 92.6459 63.3527C92.5283 63.5277 92.3695 63.6709 92.1833 63.7698C91.9972 63.8687 91.7896 63.9202 91.5789 63.9197ZM92.1899 72.1427C90.1459 72.1427 88.3139 71.8557 87.2169 71.1977C86.0889 70.5227 85.8739 69.6037 85.8459 69.1167C85.5379 63.7127 88.5199 62.7717 90.0409 62.3427C89.8289 62.0227 89.5269 61.6457 89.2159 61.2567C88.3289 60.1487 87.1149 58.6307 86.1789 56.3607C86.0329 56.0067 85.5729 55.1817 85.0409 54.2277C82.1579 49.0587 76.1599 38.3017 80.0129 32.7927C81.7969 30.2437 85.3469 29.2407 90.5789 29.8007C89.0399 25.1117 81.7099 10.4427 64.3199 10.1577C59.0889 10.0697 54.7989 11.6787 51.5759 14.9327C44.3589 22.2217 44.6209 35.4097 44.6239 35.5407C44.6283 35.7094 44.5994 35.8773 44.5389 36.0349C44.4784 36.1924 44.3875 36.3365 44.2713 36.4588C44.1552 36.5812 44.016 36.6795 43.8619 36.7481C43.7077 36.8168 43.5415 36.8544 43.3729 36.8587C43.2042 36.8631 43.0363 36.8343 42.8788 36.7738C42.7212 36.7133 42.5772 36.6224 42.4548 36.5062C42.3324 36.39 42.2341 36.2509 42.1655 36.0968C42.0968 35.9426 42.0593 35.7764 42.0549 35.6077C42.0389 35.0227 41.7689 21.1837 49.7499 13.1237C53.4849 9.35175 58.4009 7.48975 64.3619 7.58675C75.4899 7.76975 82.6509 13.4257 86.6999 18.1397C91.1119 23.2757 93.2759 28.9417 93.4539 30.8317C93.5869 32.2377 92.5779 32.5197 92.3739 32.5607L91.9109 32.5717C86.7759 31.7497 83.4819 32.3197 82.1199 34.2667C79.1889 38.4547 84.8629 48.6297 87.2859 52.9757C87.9049 54.0838 88.3509 54.8847 88.5549 55.3797C89.3509 57.3097 90.3889 58.6067 91.2229 59.6487C91.9559 60.5657 92.5919 61.3597 92.8199 62.2937C92.9249 62.4787 94.4229 64.6927 103.308 62.8587C105.535 62.3997 106.87 62.7927 107.278 64.0267C108.081 66.4557 103.576 69.2877 101.082 70.4467C98.8439 71.4857 95.2769 72.1427 92.1899 72.1427ZM88.4089 68.9047C88.6899 69.1897 90.0999 69.6797 93.0209 69.5547C95.6169 69.4427 98.3559 68.8777 99.9999 68.1157C102.102 67.1397 103.504 66.0487 104.231 65.3037L103.827 65.3777C98.1459 66.5507 94.1279 66.3948 91.8849 64.9128C91.7339 64.8133 91.5887 64.7055 91.4499 64.5897C91.2069 64.6857 90.9819 64.7487 90.8219 64.7937C89.5489 65.1507 88.2329 65.5197 88.4089 68.9047ZM51.7119 76.0837C50.3009 76.0837 48.8159 75.8927 47.2989 75.5117C45.7279 75.1187 43.0779 73.9357 43.1189 71.9927C43.1639 69.8117 46.3349 69.1578 47.5299 68.9118C51.8419 68.0238 52.1229 67.6677 53.4709 65.9567C53.8639 65.4577 54.3529 64.8368 55.0189 64.0918C56.0089 62.9848 57.0909 62.4227 58.2349 62.4227C59.0309 62.4227 59.6849 62.6937 60.1159 62.8717C61.4919 63.4417 62.6399 64.8197 63.1119 66.4697C63.5379 67.9577 63.3349 69.3897 62.5399 70.5017C59.9319 74.1547 56.1879 76.0837 51.7119 76.0837ZM45.8949 72.1037C46.2829 72.4027 47.0589 72.8027 47.9219 73.0197C49.2359 73.3477 50.5099 73.5147 51.7119 73.5147C55.3739 73.5147 58.3129 71.9978 60.4489 69.0088C60.8939 68.3848 60.7609 67.5938 60.6419 67.1768C60.3919 66.3048 59.7719 65.5118 59.1329 65.2458C58.7859 65.1018 58.4989 64.9917 58.2349 64.9917C58.0929 64.9917 57.6619 64.9917 56.9349 65.8047C56.3209 66.4907 55.8799 67.0507 55.4889 67.5457C53.8109 69.6767 53.0419 70.3997 48.0479 71.4287C46.8299 71.6807 46.2049 71.9347 45.8949 72.1037ZM55.7769 66.1758C55.4701 66.1753 55.1736 66.0652 54.9409 65.8653C54.7082 65.6654 54.5546 65.3889 54.5079 65.0857C54.475 64.8724 54.4536 64.6574 54.4439 64.4417C51.1699 64.3797 48.0119 62.9757 45.6149 60.4737C42.5839 57.3107 41.2039 52.9287 41.8299 48.4517C42.5099 43.5897 42.2559 39.2977 42.1189 36.9917C42.0846 36.5174 42.0636 36.0422 42.0559 35.5667C42.0579 35.1607 42.0659 34.0817 45.6709 32.2547C46.9529 31.6047 49.5239 30.4707 52.3319 30.1797C56.9859 29.6997 60.0529 31.7717 60.9709 36.0157C63.4489 47.4757 61.1669 52.5447 59.5009 56.2457C59.1899 56.9337 58.8969 57.5857 58.6629 58.2157L58.4559 58.7727C57.5759 61.1327 56.8149 63.1717 57.0489 64.6957C57.1003 65.0326 57.016 65.3762 56.8145 65.651C56.6129 65.9258 56.3106 66.1095 55.9739 66.1618L55.7769 66.1758ZM44.6339 35.9217L44.6849 36.8397C44.8269 39.2347 45.0909 43.6927 44.3749 48.8087C43.8589 52.5007 44.9869 56.1057 47.4699 58.6967C49.4319 60.7447 52.0159 61.8747 54.6709 61.8747H54.7259C55.0239 60.6217 55.5169 59.2997 56.0479 57.8747L56.2539 57.3217C56.5189 56.6097 56.8289 55.9207 57.1569 55.1917C58.7609 51.6277 60.7569 47.1917 58.4579 36.5587C58.0019 34.4537 56.8979 33.2347 55.0829 32.8327C51.3549 32.0087 45.7999 34.8127 44.6339 35.9217ZM52.3899 35.3767C52.3259 35.8307 53.2229 37.0437 54.3909 37.2057C55.5579 37.3687 56.5569 36.4207 56.6199 35.9667C56.6829 35.5117 55.7869 35.0117 54.6179 34.8487C53.4509 34.6857 52.4519 34.9217 52.3899 35.3767ZM54.6599 37.6537L54.3319 37.6307C53.6069 37.5297 52.8739 37.0727 52.3729 36.4077C52.1969 36.1747 51.9089 35.7207 51.9659 35.3167C52.0479 34.7237 52.7699 34.3697 53.8989 34.3697C54.1519 34.3697 54.4139 34.3887 54.6789 34.4247C55.2949 34.5107 55.8679 34.6887 56.2909 34.9247C57.0239 35.3347 57.0779 35.7907 57.0449 36.0277C56.9539 36.6807 55.9119 37.6537 54.6599 37.6537ZM52.8159 35.4527C52.8529 35.7327 53.5459 36.6577 54.4499 36.7827L54.6589 36.7977C55.4929 36.7977 56.1169 36.1407 56.1899 35.9257C56.1129 35.7797 55.5769 35.4147 54.5589 35.2747C54.3399 35.2433 54.119 35.2272 53.8979 35.2267C53.2459 35.2257 52.8969 35.3727 52.8159 35.4527ZM87.9369 34.4497C87.9999 34.9047 87.1049 36.1177 85.9359 36.2797C84.7679 36.4417 83.7689 35.4947 83.7049 35.0397C83.6429 34.5857 84.5389 34.0847 85.7069 33.9227C86.8749 33.7587 87.8729 33.9967 87.9369 34.4497ZM85.6669 36.5117C84.5419 36.5117 83.5729 35.6367 83.4929 35.0697C83.4009 34.3887 84.5219 33.8707 85.6779 33.7107C85.9319 33.6747 86.1839 33.6567 86.4269 33.6567C87.4239 33.6567 88.0839 33.9497 88.1499 34.4207C88.1929 34.7267 87.9589 35.1977 87.5549 35.6217C87.2889 35.9017 86.7289 36.3867 85.9669 36.4917L85.6669 36.5117ZM86.4259 34.0847C86.2029 34.0847 85.9709 34.1017 85.7359 34.1337C84.5739 34.2947 83.8829 34.7617 83.9159 35.0117C83.9549 35.2857 84.6959 36.0837 85.6659 36.0837L85.9049 36.0667C86.5389 35.9777 87.0149 35.5647 87.2419 35.3257C87.5979 34.9507 87.7399 34.5987 87.7229 34.4777C87.7019 34.3207 87.2739 34.0847 86.4259 34.0847ZM89.6199 60.5377C89.3871 60.5376 89.1588 60.4743 88.9592 60.3545C88.7596 60.2347 88.5964 60.063 88.4868 59.8576C88.3773 59.6522 88.3255 59.421 88.3372 59.1885C88.3488 58.9561 88.4233 58.7311 88.5529 58.5377C91.2889 54.4507 90.7879 50.2817 90.3039 46.2517C90.0969 44.5337 89.8839 42.7587 89.9399 41.0537C89.9959 39.3007 90.2179 37.8548 90.4339 36.4548C90.6889 34.7978 90.9299 33.2307 90.8299 31.3727C90.8225 31.0388 90.9454 30.7151 91.1724 30.4702C91.3995 30.2252 91.713 30.0783 92.0465 30.0603C92.38 30.0424 92.7075 30.1549 92.9595 30.3741C93.2115 30.5933 93.3684 30.902 93.3969 31.2347C93.5109 33.3587 93.2379 35.1307 92.9739 36.8457C92.7699 38.1687 92.5589 39.5367 92.5079 41.1357C92.4589 42.6447 92.6519 44.2477 92.8559 45.9437C93.3719 50.2307 93.9549 55.0897 90.6889 59.9667C90.4409 60.3367 90.0339 60.5377 89.6199 60.5377Z" fill="white"/>
<path d="M2.83496 103.184C4.27075 102.951 5.72343 102.838 7.17796 102.846C9.41296 102.846 11.052 103.366 12.092 104.302C13.054 105.134 13.626 106.408 13.626 107.969C13.626 109.555 13.157 110.803 12.273 111.713C11.077 112.987 9.12696 113.637 6.91696 113.637C6.24096 113.637 5.61696 113.611 5.09796 113.481V120.502H2.83496V103.184ZM5.09796 111.634C5.59196 111.764 6.21596 111.816 6.96996 111.816C9.69896 111.816 11.364 110.49 11.364 108.072C11.364 105.758 9.72596 104.64 7.22996 104.64C6.24196 104.64 5.48796 104.718 5.09796 104.822V111.634ZM27.328 114.104C27.328 118.758 24.103 120.787 21.061 120.787C17.655 120.787 15.029 118.291 15.029 114.312C15.029 110.1 17.785 107.63 21.269 107.63C24.884 107.629 27.328 110.256 27.328 114.104ZM17.344 114.234C17.344 116.99 18.93 119.07 21.166 119.07C23.35 119.07 24.987 117.016 24.987 114.182C24.987 112.05 23.922 109.346 21.217 109.346C18.512 109.346 17.344 111.842 17.344 114.234ZM29.901 118.16C30.577 118.602 31.773 119.07 32.917 119.07C34.581 119.07 35.361 118.238 35.361 117.198C35.361 116.106 34.712 115.508 33.021 114.884C30.759 114.078 29.693 112.83 29.693 111.322C29.693 109.294 31.331 107.63 34.035 107.63C35.309 107.63 36.428 107.994 37.13 108.41L36.558 110.074C35.7841 109.597 34.8929 109.345 33.984 109.346C32.632 109.346 31.878 110.126 31.878 111.062C31.878 112.102 32.633 112.57 34.271 113.194C36.455 114.026 37.573 115.118 37.573 116.99C37.573 119.2 35.857 120.76 32.867 120.76C31.489 120.76 30.215 120.422 29.331 119.902L29.901 118.16ZM43.266 104.301V107.915H46.541V109.657H43.266V116.443C43.266 118.003 43.707 118.887 44.982 118.887C45.4289 118.894 45.8747 118.841 46.308 118.731L46.412 120.447C45.971 120.629 45.268 120.759 44.385 120.759C43.319 120.759 42.46 120.421 41.914 119.797C41.265 119.121 41.03 118.003 41.03 116.521V109.657H39.08V107.915H41.03V104.899L43.266 104.301ZM59.802 107.916C59.749 108.826 59.698 109.84 59.698 111.374V118.68C59.698 121.566 59.126 123.334 57.904 124.427C56.682 125.571 54.914 125.935 53.328 125.935C51.82 125.935 50.156 125.571 49.141 124.895L49.713 123.153C50.545 123.673 51.845 124.141 53.405 124.141C55.745 124.141 57.461 122.919 57.461 119.747V118.343H57.409C56.707 119.513 55.355 120.449 53.405 120.449C50.285 120.449 48.049 117.797 48.049 114.312C48.049 110.048 50.831 107.63 53.717 107.63C55.902 107.63 57.098 108.774 57.644 109.814H57.696L57.8 107.916H59.802ZM57.436 112.882C57.436 112.492 57.41 112.154 57.306 111.842C56.89 110.516 55.772 109.424 54.108 109.424C51.923 109.424 50.364 111.27 50.364 114.182C50.364 116.652 51.612 118.706 54.082 118.706C55.486 118.706 56.76 117.822 57.254 116.366C57.384 115.976 57.437 115.534 57.437 115.144L57.436 112.882ZM63.337 111.842C63.337 110.36 63.311 109.086 63.233 107.916H65.236L65.313 110.386H65.417C65.989 108.696 67.367 107.63 68.901 107.63C69.161 107.63 69.342 107.656 69.55 107.708V109.866C69.2941 109.81 69.0328 109.784 68.771 109.788C67.159 109.788 66.014 111.01 65.703 112.726C65.6388 113.078 65.604 113.434 65.599 113.792V120.5H63.337V111.842ZM72.854 114.624C72.906 117.718 74.881 118.992 77.169 118.992C78.808 118.992 79.795 118.706 80.653 118.342L81.043 119.98C80.237 120.344 78.859 120.76 76.857 120.76C72.983 120.76 70.669 118.212 70.669 114.416C70.669 110.62 72.905 107.629 76.571 107.629C80.679 107.629 81.771 111.243 81.771 113.557C81.771 114.025 81.719 114.389 81.693 114.623L72.854 114.624ZM79.562 112.986C79.587 111.53 78.963 109.268 76.39 109.268C74.076 109.268 73.062 111.4 72.879 112.986H79.562Z" fill="white"/>
<path d="M84.3709 117.744C85.5966 118.481 86.997 118.876 88.4269 118.888C90.7409 118.888 92.0929 117.666 92.0929 115.898C92.0929 114.26 91.1569 113.324 88.7909 112.414C85.9309 111.4 84.1629 109.918 84.1629 107.448C84.1629 104.718 86.4249 102.69 89.8309 102.69C91.6249 102.69 92.9249 103.106 93.7049 103.548L93.0809 105.394C92.058 104.845 90.9141 104.559 89.7529 104.562C87.3609 104.562 86.4509 105.992 86.4509 107.188C86.4509 108.826 87.5159 109.632 89.9349 110.568C92.8989 111.713 94.4069 113.142 94.4069 115.716C94.4069 118.42 92.4049 120.76 88.2709 120.76C86.5809 120.76 84.7349 120.266 83.7979 119.642L84.3709 117.744ZM111.957 123.074C109.697 122.481 107.459 121.805 105.249 121.046C104.885 120.916 104.521 120.786 104.183 120.786C100.023 120.63 96.4609 117.562 96.4609 111.92C96.4609 106.304 99.8929 102.69 104.625 102.69C109.383 102.69 112.478 106.382 112.478 111.556C112.478 116.054 110.398 118.94 107.486 119.954V120.058C109.228 120.5 111.126 120.916 112.608 121.176L111.957 123.074ZM110.085 111.66C110.085 108.15 108.266 104.535 104.547 104.535C100.725 104.535 98.8529 108.071 98.8789 111.868C98.8529 115.586 100.907 118.94 104.443 118.94C108.058 118.94 110.085 115.664 110.085 111.66ZM115.414 102.976H117.677V118.602H125.165V120.5H115.414V102.976Z" fill="#336791"/>
</svg>
